<svg id="svg5" xmlns="http://www.w3.org/2000/svg" viewBox="0 0 541.71 305.22"><defs><style>.cls-1{fill:#fc0;}</style></defs><g id="layer1"><path id="path5095" class="cls-1" d="M49.87,304.51a71,71,0,0,1-10.09-2.74C20.89,295,6.88,279.53,1.46,259.42L.22,254.83.05,155.38c-.13-72,0-100.69.46-103.95C4,26.84,22.94,6.77,47.88,1.21L53.32,0H270.85C479.43,0,488.59,0,493.19,1c24.42,5.25,42.65,23.32,47.54,47.13,1,5,1.07,9,.92,106.5L541.5,256,539.94,261c-6.64,21.66-22,36.57-44,42.74l-4.77,1.33-218.38.09c-182.42.07-219.14,0-223-.69Z"/><path id="path1001" d="M109.72,77.59A73,73,0,0,0,95,78.65c-15.36,3.29-25.76,12.57-29.32,26.16-1.53,5.84-1.81,13.28-1.82,47.61,0,40.65.37,46,3.73,53.42,5.55,12.37,17.1,19.88,33.21,21.61a82.78,82.78,0,0,0,14.78-.31c14.79-2,25-8.82,30.61-20.39,3.35-6.94,3.6-8.9,4.2-34,.56-23.08,0-57.72-1-64.27-1.44-9.14-6.6-17.78-13.6-22.78-5.61-4-13.2-6.75-21.55-7.8C112.92,77.72,111.38,77.63,109.72,77.59ZM394.84,80.3V224.53h33.8l.93-3.89c.51-2.15,1-4,1.12-4.23s1.38.84,2.85,2.25c4.67,4.51,9.55,7.07,15,7.87a28.12,28.12,0,0,0,13.27-1.23,23.34,23.34,0,0,0,12.78-11c1.86-3.78,2.47-7.26,3-17.19.57-10.66.23-71.36-.42-75.5a19.72,19.72,0,0,0-10.57-14.39,29.73,29.73,0,0,0-11.83-2.83,28.14,28.14,0,0,0-21.82,7.9l-2.15,2V80.3h-36Zm-89.9.08-9.79.12-.1,72-.1,72h29c35.35,0,38-.22,45.24-3.65a19.78,19.78,0,0,0,11-13.59c1.49-5.85,1.64-10.57,1.64-52.88,0-48.92-.08-50.11-3.42-57.15a27.08,27.08,0,0,0-9.09-10.32c-4.63-2.8-9.57-4.3-17.31-5.24-5.9-.72-33.26-1.48-47.09-1.32Zm-116.49,0-23.95.1-.1,72-.1,72h33.16l.1-45.8.11-45.8,6.52,45.1c3.58,24.81,6.61,45.42,6.72,45.8.18.65,1.09.7,11.75.7h11.55l.2-.9c.11-.49,3-21.75,6.4-47.24s6.27-46.62,6.35-46.95.18,20.93.2,47.25l0,47.84h32.76l-.1-72-.1-72-24.15-.1c-13.28-.06-24.27,0-24.43.2s-2.14,15-4.41,33-4.24,32.52-4.37,32.36-1.64-10.36-3.35-22.66c-3.94-28.38-6-42.14-6.5-42.6-.21-.21-10.41-.31-24.31-.25ZM107,102a5.24,5.24,0,0,1,3.49,1c2.4,2.14,2.64,6.44,2.64,47.45,0,36.61-.31,47.2-1.49,49.87a5.54,5.54,0,0,1-1.59,2.22,8.76,8.76,0,0,1-4.48.6c-3.08-1.1-3.54-2.19-4-9.49s-.47-75.7,0-82.3c.43-5.93,1.06-7.67,3.19-8.77A5.63,5.63,0,0,1,107,102Zm226.09,3.3a27.6,27.6,0,0,1,7.55,1.15c2.37,1.12,3,2.67,3.5,8.14.58,6.77.22,74.93-.41,78.13-.72,3.64-1.45,4.87-3.53,5.87a13.67,13.67,0,0,1-4.75,1.07l-2.94.18V152.73c0-25.92.08-47.21.18-47.31a.79.79,0,0,1,.4-.1Zm103,20.13a3.55,3.55,0,0,1,3.29,1.3c2.22,2.22,2.26,3,2.11,40.65-.14,35.4-.15,35.78-1.91,37.36a5.59,5.59,0,0,1-3,.91c-2.06.17-2.26.1-3.55-1.19a5.32,5.32,0,0,1-1.71-3.74c-.18-1.31-.34-17.66-.34-36.34,0-26.37.12-34.33.51-35.64.7-2.31,2.09-3.31,4.58-3.31Z"/></g></svg>